HIERARCHY
ROOT SpineBase
{
  OFFSET 0.000000 0.000000 0.000000
  CHANNELS 6 Xposition Yposition Zposition Zrotation Xrotation Yrotation
  JOINT SpineMid
  {
    OFFSET 0.000000 27.000986 0.000000
    CHANNELS 3 Zrotation Xrotation Yrotation
    JOINT SpineShoulder
    {
      OFFSET -0.040060 20.060457 -0.689425
      CHANNELS 3 Zrotation Xrotation Yrotation
      JOINT Neck
      {
        OFFSET -0.087451 6.681717 -0.514208
        CHANNELS 3 Zrotation Xrotation Yrotation
        JOINT Head
        {
          OFFSET -0.611280 12.274549 0.851936
          CHANNELS 3 Zrotation Xrotation Yrotation
          End Site
          {
            OFFSET 0 0 0
          }
        }
      }
      JOINT ShoulderLeft
      {
        OFFSET -12.197240 -1.760647 4.482674
        CHANNELS 3 Zrotation Xrotation Yrotation
        JOINT ElbowLeft
        {
          OFFSET -6.450818 -19.639471 -4.694461
          CHANNELS 3 Zrotation Xrotation Yrotation
          JOINT WristLeft
          {
            OFFSET -12.625178 -15.713103 7.430157
            CHANNELS 3 Zrotation Xrotation Yrotation
            JOINT HandLeft
            {
              OFFSET -2.660642 -1.108633 0.820360
              CHANNELS 3 Zrotation Xrotation Yrotation
              JOINT HandTipLeft
              {
                OFFSET -1.204084 -1.588370 -1.246675
                CHANNELS 3 Zrotation Xrotation Yrotation
                End Site
                {
                  OFFSET 0 0 0
                }
              }
              JOINT ThumbLeft
              {
                OFFSET 0.966478 -0.435251 -2.644386
                CHANNELS 3 Zrotation Xrotation Yrotation
                End Site
                {
                  OFFSET 0 0 0
                }
              }
            }
          }
        }
      }
      JOINT ShoulderRight
      {
        OFFSET 10.348041 -0.586145 -8.261865
        CHANNELS 3 Zrotation Xrotation Yrotation
        JOINT ElbowRight
        {
          OFFSET -3.936503 -18.893142 -5.302567
          CHANNELS 3 Zrotation Xrotation Yrotation
          JOINT WristRight
          {
            OFFSET 12.747585 -16.457714 -10.631264
            CHANNELS 3 Zrotation Xrotation Yrotation
            JOINT HandRight
            {
              OFFSET 0.659833 -4.541744 3.276761
              CHANNELS 3 Zrotation Xrotation Yrotation
              JOINT HandTipRight
              {
                OFFSET -0.495184 -2.495895 0.112376
                CHANNELS 3 Zrotation Xrotation Yrotation
                End Site
                {
                  OFFSET 0 0 0
                }
              }
              JOINT ThumbRight
              {
                OFFSET -2.118998 0.350043 -3.862217
                CHANNELS 3 Zrotation Xrotation Yrotation
                End Site
                {
                  OFFSET 0 0 0
                }
              }
            }
          }
        }
      }
    }
  }
  JOINT HipLeft
  {
    OFFSET -6.457023 1.030184 -0.399839
    CHANNELS 3 Zrotation Xrotation Yrotation
    JOINT KneeLeft
    {
      OFFSET -18.834929 10.125307 -22.859331
      CHANNELS 3 Zrotation Xrotation Yrotation
      JOINT AnkleLeft
      {
        OFFSET -6.279369 -35.010219 0.350780
        CHANNELS 3 Zrotation Xrotation Yrotation
        JOINT FootLeft
        {
          OFFSET -4.966820 -2.251095 -11.318456
          CHANNELS 3 Zrotation Xrotation Yrotation
          End Site
          {
            OFFSET 0 0 0
          }
        }
      }
    }
  }
  JOINT HipRight
  {
    OFFSET 6.050827 1.453160 -5.874246
    CHANNELS 3 Zrotation Xrotation Yrotation
    JOINT KneeRight
    {
      OFFSET -20.638171 10.230334 -23.329274
      CHANNELS 3 Zrotation Xrotation Yrotation
      JOINT AnkleRight
      {
        OFFSET -2.393806 -34.588323 -3.696223
        CHANNELS 3 Zrotation Xrotation Yrotation
        JOINT FootRight
        {
          OFFSET -4.950694 -6.297970 -7.004322
          CHANNELS 3 Zrotation Xrotation Yrotation
          End Site
          {
            OFFSET 0 0 0
          }
        }
      }
    }
  }
}
MOTION
Frames: 7
Frame Time: 0.033333
31.862505 23.971871 390.192166 26.713747 -24.305755 -24.781092 -0.476699 -1.275469 31.851907 -1.397945 -0.170059 0.976170 44.266201 -13.196201 -12.612680 0.000000 0.000000 0.000000 -156.257388 12.949306 77.164559 140.774812 55.423499 148.520222 9.240729 35.748817 30.233601 -103.534829 -5.362241 -96.604344 0.000000 0.000000 0.000000 0.000000 0.000000 0.000000 26.134183 -8.372362 -14.234105 -17.393017 0.982466 -27.662551 8.355067 9.906387 61.125897 177.594551 -67.297537 -64.742263 0.000000 0.000000 0.000000 0.000000 0.000000 0.000000 0.038263 16.580482 58.330726 -16.635444 21.579246 -30.270040 1.493973 41.150023 -50.928524 0.000000 0.000000 0.000000 -26.560969 1.681155 22.201834 -12.535273 -5.225183 12.999864 2.080886 37.876529 -7.440954 0.000000 0.000000 0.000000
31.731025 23.770227 390.387567 26.492302 -24.942389 -25.605940 -0.424818 -1.149616 32.736424 -1.330634 -0.059055 0.937155 46.142268 -13.495840 -13.169476 0.000000 0.000000 0.000000 -149.653986 8.520579 70.729712 153.321807 50.769487 121.705188 13.193647 31.360279 30.692058 -110.018837 -20.290943 -86.962004 0.000000 0.000000 0.000000 0.000000 0.000000 0.000000 26.594487 -9.431758 -13.773864 -23.129587 -10.691559 -31.838547 0.470594 10.747864 60.538497 -144.236534 -60.432624 -27.622593 0.000000 0.000000 0.000000 0.000000 0.000000 0.000000 -1.670665 17.489504 59.485225 -0.190247 22.530168 -38.943426 -13.301836 32.321559 -43.691731 0.000000 0.000000 0.000000 -27.040711 1.968583 22.935349 -12.495502 -5.552841 13.231058 5.494598 30.411086 -7.259891 0.000000 0.000000 0.000000
31.482950 23.463258 390.834352 26.450993 -25.826185 -25.230298 -0.491660 -0.941637 32.512100 -1.263365 0.129637 0.887353 45.531758 -13.361050 -13.360417 0.000000 0.000000 0.000000 -148.261593 8.135825 70.184845 153.794081 48.491512 113.797282 15.159076 28.495496 28.417127 -114.080382 -32.706066 -87.638395 0.000000 0.000000 0.000000 0.000000 0.000000 0.000000 26.815290 -10.248992 -13.364305 -31.285443 -20.570478 -35.081377 -7.272337 26.102184 63.217948 -122.879901 -60.188784 -26.537203 0.000000 0.000000 0.000000 0.000000 0.000000 0.000000 -5.590341 18.627325 59.699287 14.834365 19.416868 -44.952865 -29.626506 24.287032 -31.202019 0.000000 0.000000 0.000000 -28.105447 3.024286 22.762696 -12.167826 -5.392990 13.390028 7.742047 19.150283 -3.646753 0.000000 0.000000 0.000000
31.187310 23.061971 391.524314 26.363950 -26.862547 -23.729050 -0.606489 -0.567215 31.144047 -1.194525 0.402603 0.820486 43.239016 -12.819324 -13.241416 0.000000 0.000000 0.000000 -151.736984 11.374396 74.620978 145.355209 49.683648 119.997493 14.674814 25.135479 21.267611 -123.318376 -46.039620 -105.514489 0.000000 0.000000 0.000000 0.000000 0.000000 0.000000 26.611170 -10.789364 -12.844174 -40.531974 -33.067824 -44.155573 -7.041601 24.620236 65.128846 -79.682377 -51.514789 10.043908 0.000000 0.000000 0.000000 0.000000 0.000000 0.000000 -5.604890 19.202445 57.326229 26.877504 20.794943 -50.898350 -36.092882 1.728125 -29.531337 0.000000 0.000000 0.000000 -29.459607 4.896047 21.702814 -10.683733 -4.298708 13.390219 4.221731 15.904439 0.783744 0.000000 0.000000 0.000000
30.947412 23.189324 391.738937 26.857681 -27.374128 -23.005273 -0.902030 -0.393010 30.663428 -1.226105 0.506389 0.815086 39.002316 -12.167908 -12.486305 0.000000 0.000000 0.000000 -159.581575 18.548933 84.323865 126.346673 50.504022 140.224542 6.065936 26.086517 19.384006 -133.896784 -46.048908 -134.397713 0.000000 0.000000 0.000000 0.000000 0.000000 0.000000 26.403442 -11.343188 -12.382306 -51.595828 -41.178895 -52.282807 -8.127092 27.396919 66.154117 -56.599419 -57.167920 18.975166 0.000000 0.000000 0.000000 0.000000 0.000000 0.000000 -9.483967 20.123364 57.792687 28.753732 22.794709 -52.518403 -33.851044 -9.826594 -25.455443 0.000000 0.000000 0.000000 -29.851889 5.517675 21.834078 -10.766412 -2.525756 12.885026 6.153596 12.974654 -1.202522 0.000000 0.000000 0.000000
30.711907 23.257958 391.699895 27.109898 -27.365264 -22.911715 -1.189477 -0.431607 30.673767 -1.307681 0.566521 0.816765 37.971678 -13.206863 -11.585397 0.000000 0.000000 0.000000 -172.796506 26.842042 100.395446 99.264313 45.819781 165.090147 -3.939063 26.264790 13.282388 -133.487080 -45.236022 -158.462761 0.000000 0.000000 0.000000 0.000000 0.000000 0.000000 26.169812 -12.125415 -11.564193 -59.654306 -44.354393 -57.196099 -9.180032 32.423149 66.596353 -45.912074 -54.966531 22.381686 0.000000 0.000000 0.000000 0.000000 0.000000 0.000000 -12.931911 20.044489 57.888072 27.398648 24.053220 -50.835629 -34.388098 -21.700212 -6.507160 0.000000 0.000000 0.000000 -29.892055 5.316792 21.682573 -10.446131 -2.152898 12.954040 4.512458 10.366668 2.032909 0.000000 0.000000 0.000000
30.642621 22.909652 391.608282 27.255160 -27.350808 -22.494668 -1.214922 -0.527557 30.327087 -1.305920 0.588364 0.814740 35.336634 -12.196850 -11.397966 0.000000 0.000000 0.000000 178.159872 32.711946 112.776005 85.414404 38.310800 173.743807 -13.122237 27.156786 9.548064 -127.313442 -41.068883 174.825300 0.000000 0.000000 0.000000 0.000000 0.000000 0.000000 26.834457 -13.513368 -10.982419 -62.429253 -44.423780 -57.288591 -10.525247 34.965596 67.341605 -37.857954 -55.797376 23.069998 0.000000 0.000000 0.000000 0.000000 0.000000 0.000000 -16.487971 20.201401 57.806654 25.377007 21.621447 -47.001216 -32.740254 -23.134690 -1.164917 0.000000 0.000000 0.000000 -30.259176 5.537992 21.354770 -10.130558 -2.501931 12.929219 3.677117 10.206974 3.206223 0.000000 0.000000 0.000000
